<?xml version="1.0" encoding="utf-8"?>
<!-- Generator: Adobe Illustrator 17.0.2, SVG Export Plug-In . SVG Version: 6.00 Build 0)  -->
<!DOCTYPE svg PUBLIC "-//W3C//DTD SVG 1.1//EN" "http://www.w3.org/Graphics/SVG/1.1/DTD/svg11.dtd">
<svg version="1.1" id="Layer_1" xmlns="http://www.w3.org/2000/svg" xmlns:xlink="http://www.w3.org/1999/xlink" x="0px" y="0px"
	 width="504px" height="504px" viewBox="0 0 504 504" enable-background="new 0 0 504 504" xml:space="preserve">
<path fill="#DCF7ED" d="M466.635,133.637c0,0.523-1.791,0.947-4,0.947H24.567c-2.209,0-4-0.424-4-0.947V29.913
	c0-0.523,1.791-0.947,4-0.947h438.067c2.209,0,4,0.424,4,0.947V133.637z"/>
<path fill="none" stroke="#EF9D8B" stroke-width="5" stroke-miterlimit="10" d="M465.07,471.034c0,2.209-1.791,4-4,4H23.003
	c-2.209,0-4-1.791-4-4V32.966c0-2.209,1.791-4,4-4H461.07c2.209,0,4,1.791,4,4V471.034z"/>
<line fill="none" stroke="#EF9D8B" stroke-width="5" stroke-miterlimit="10" x1="19.003" y1="133.011" x2="465.07" y2="133.011"/>
<line fill="none" stroke="#EF9D8B" stroke-width="5" stroke-miterlimit="10" x1="19.003" y1="221.101" x2="465.07" y2="221.101"/>
<line fill="none" stroke="#EF9D8B" stroke-width="5" stroke-miterlimit="10" x1="19.003" y1="304.876" x2="465.07" y2="304.876"/>
<line fill="none" stroke="#EF9D8B" stroke-width="5" stroke-miterlimit="10" x1="19.003" y1="386.775" x2="465.07" y2="386.775"/>
<line fill="none" stroke="#EF9D8B" stroke-width="5" stroke-miterlimit="10" x1="79.171" y1="133.011" x2="79.171" y2="475.034"/>
<line fill="none" stroke="#EF9D8B" stroke-width="5" stroke-miterlimit="10" x1="141.958" y1="133.011" x2="141.958" y2="475.034"/>
<line fill="none" stroke="#EF9D8B" stroke-width="5" stroke-miterlimit="10" x1="207.992" y1="133.011" x2="207.992" y2="475.034"/>
<line fill="none" stroke="#EF9D8B" stroke-width="5" stroke-miterlimit="10" x1="271.037" y1="133.011" x2="271.037" y2="475.034"/>
<line fill="none" stroke="#EF9D8B" stroke-width="5" stroke-miterlimit="10" x1="336.205" y1="133.011" x2="336.205" y2="475.034"/>
<line fill="none" stroke="#EF9D8B" stroke-width="5" stroke-miterlimit="10" x1="399.89" y1="133.011" x2="399.89" y2="475.034"/>
<g>
	<path fill="#71BFA3" d="M142.632,97.005c0,4.51,1.312,6.888,4.592,6.888c6.232,0,13.53-12.628,13.53-29.028
		c0-11.07-4.674-20.172-15.58-20.172c-13.612,0-17.22,9.84-17.22,18.532c0,7.872,4.018,12.464,4.346,12.71
		c0.902-0.246,1.23,0.328,1.23,1.148c0,2.132-2.05,4.838-3.936,4.838c-0.41,0-0.82-0.082-1.23-0.41
		c-0.246-0.164-6.806-6.232-6.806-17.794c0-14.924,9.512-25.338,23.862-25.338c15.252,0,21.894,12.628,21.894,25.83
		c0,23.288-11.562,35.999-20.582,35.999c-7.708,0-10.496-4.92-10.496-13.612V65.189c0-1.558-0.328-2.05-0.328-2.624
		c0-0.82,0.984-1.394,2.132-1.394c2.706,0,4.592,1.64,4.592,3.608V97.005z"/>
	<path fill="#71BFA3" d="M178.794,98.891c1.148,2.788,3.362,5.084,7.626,5.084c6.396,0,9.02-5.33,10.004-10.332
		c0.738-3.69,5.33-2.05,5.002,0.82c-0.574,5.002-3.854,14.924-15.908,14.924c-7.462,0-14.514-5.986-14.514-16.236
		c0-10.414,6.232-18.205,12.546-18.205c4.592,0,7.38,3.362,7.38,8.282C190.93,89.297,186.748,96.513,178.794,98.891z M177.81,94.381
		c4.1-1.886,6.724-6.15,6.724-11.07c0-1.804-0.656-2.87-1.722-2.87c-4.018,0-5.248,9.02-5.084,12.464
		C177.728,93.397,177.81,93.889,177.81,94.381z"/>
	<path fill="#71BFA3" d="M195.358,93.889c0-9.43,5.576-18.942,13.366-18.942c5.658,0,7.79,5.167,7.79,8.036
		c0,3.116-5.658,4.756-5.166,1.886c-0.41-1.394-0.574-4.428-3.362-4.428c-3.034,0-5.904,6.068-5.904,13.448
		c0,6.478,3.526,10.086,8.364,10.086c6.396,0,9.348-5.33,10.332-10.332c0.738-3.69,5.33-2.05,5.002,0.82
		c-0.574,5.002-4.182,14.924-16.236,14.924C202.246,109.387,195.358,103.975,195.358,93.889z"/>
	<path fill="#71BFA3" d="M227.501,98.891c1.148,2.788,3.362,5.084,7.626,5.084c6.396,0,9.02-5.33,10.004-10.332
		c0.738-3.69,5.33-2.05,5.002,0.82c-0.574,5.002-3.854,14.924-15.908,14.924c-7.462,0-14.514-5.986-14.514-16.236
		c0-10.414,6.232-18.205,12.546-18.205c4.592,0,7.38,3.362,7.38,8.282C239.637,89.297,235.456,96.513,227.501,98.891z
		 M226.517,94.381c4.1-1.886,6.724-6.15,6.724-11.07c0-1.804-0.656-2.87-1.722-2.87c-4.018,0-5.248,9.02-5.084,12.464
		C226.436,93.397,226.517,93.889,226.517,94.381z"/>
	<path fill="#71BFA3" d="M282.359,109.387c-4.346,0-6.889-3.526-6.889-7.708V85.033c0-2.542-0.164-4.674-1.558-4.674
		c-2.214,0-6.888,7.052-7.38,13.53v11.972c0,1.558,0.082,3.526-2.296,3.526c-1.64,0-3.936-0.574-3.936-3.608V85.033
		c0-2.542-0.164-4.674-1.558-4.674c-2.214,0-6.888,7.052-7.38,13.53v11.972c0,1.558,0.082,3.526-2.296,3.526
		c-1.64,0-3.936-0.574-3.936-3.608V79.785c0-1.558-0.328-2.05-0.328-2.624c0-0.82,0.984-1.394,2.132-1.394
		c2.706,0,4.428,1.64,4.428,3.608v3.444c2.132-4.428,5.002-7.872,8.692-7.872c4.92,0,6.314,4.018,6.479,7.708
		c2.05-4.346,4.92-7.708,8.609-7.708c5.33,0,6.561,4.51,6.561,8.282v16.974c0,0.738,0,3.772,2.132,3.772
		c3.28,0,4.757-5.248,5.494-8.856c0.328-1.722,1.147-2.46,1.968-2.46c1.312,0,2.87,1.804,2.87,3.362c0,0.082,0,0.246-0.082,0.574
		C292.609,102.007,289.411,109.387,282.359,109.387z"/>
	<path fill="#71BFA3" d="M305.564,76.587c4.346,0,8.692,4.182,8.692,13.366c0,3.198-0.41,6.478-1.229,9.348
		c0.574,0.164,1.147,0.164,1.722,0.164c3.526,0,5.412-2.706,5.903-5.904c0.328-1.886,5.74-2.214,4.675,2.378
		c-0.984,4.428-4.347,8.118-9.923,8.118c-1.476,0-2.869-0.164-4.182-0.574c-2.05,3.526-5.248,5.904-10.004,5.904
		c-7.544,0-11.562-5.658-11.562-13.694V56.578c0-2.378-0.82-2.542-0.82-3.116c0-0.574,1.477-0.902,2.625-0.902
		c2.705,0,4.428,1.64,4.428,3.608v38.376c0,5.412,1.887,9.43,5.822,9.43c2.05,0,3.443-1.148,4.428-2.87
		c-4.674-3.362-7.544-9.102-7.544-14.924C298.595,79.539,301.711,76.587,305.564,76.587z M307.615,96.021
		c0.328-1.886,0.41-3.854,0.41-5.412c0-5.494-1.395-8.61-2.871-8.61c-1.065,0-1.476,1.558-1.476,3.854
		C303.679,89.789,305.236,93.479,307.615,96.021z"/>
	<path fill="#71BFA3" d="M327.376,98.891c1.147,2.788,3.362,5.084,7.626,5.084c6.396,0,9.02-5.33,10.004-10.332
		c0.738-3.69,5.33-2.05,5.002,0.82c-0.574,5.002-3.854,14.924-15.908,14.924c-7.462,0-14.514-5.986-14.514-16.236
		c0-10.414,6.232-18.205,12.546-18.205c4.592,0,7.38,3.362,7.38,8.282C339.512,89.297,335.33,96.513,327.376,98.891z
		 M326.392,94.381c4.101-1.886,6.725-6.15,6.725-11.07c0-1.804-0.656-2.87-1.723-2.87c-4.018,0-5.247,9.02-5.084,12.464
		C326.31,93.397,326.392,93.889,326.392,94.381z"/>
	<path fill="#71BFA3" d="M354.436,100.039c0-5.248,1.477-11.07,4.101-18.122h-6.232h-0.902c-0.081,3.198-0.573,10.332-2.05,15.088
		c-1.065,3.444-5.33,0.492-4.592-2.296c0.902-3.28,1.23-10.086,1.312-14.268c-2.051-1.148-3.526-2.87-3.526-5.248
		c0-2.296,1.968-3.772,4.1-3.772c1.969,0,4.265,0.984,5.166,4.346c2.706,0.328,3.526,0.328,4.347,0.328h4.264
		c0.984,0,4.264,2.706,3.937,4.592c0,0.984-3.69,10.66-3.69,18.86c0,2.296,1.066,4.428,3.28,4.428c3.771,0,5.166-5.248,5.903-8.856
		c0.328-1.722,1.148-2.46,1.969-2.46c1.312,0,2.87,1.804,2.87,3.362c0,0.246-0.082,0.41-0.082,0.574
		c-1.477,5.412-4.675,12.792-11.727,12.792C359.028,109.387,354.436,107.255,354.436,100.039z"/>
</g>
<g opacity="0.8">
	
		<path fill="#ED6E46" stroke="#E0623F" stroke-width="4.4567" stroke-linecap="round" stroke-linejoin="round" stroke-miterlimit="10" d="
		M158.258,216.701c4.031,28.305-6.357,53.193-23.19,55.582c-3.526,0.499-7.049-0.025-10.452-1.424
		c-2.051,2.347-4.504,4.142-7.335,5.288c-15.764,6.38-37.227-9.916-47.963-36.412s-6.662-53.158,9.09-59.535
		c7.346-2.974,15.924-1.021,24.094,4.592c4.225-8.368,10.47-13.936,18-15.002C137.324,167.403,154.23,188.407,158.258,216.701z"/>
	<path fill="none" stroke="#72483F" stroke-width="4.0516" stroke-linecap="round" stroke-miterlimit="10" d="M103.845,189.169
		c0,0-7.054-7.824-1.479-22.642"/>
	
		<path fill="none" stroke="#E0623F" stroke-width="4.4567" stroke-linecap="round" stroke-linejoin="round" stroke-miterlimit="10" d="
		M90.983,190.02c0,0,14.139,6.137,22.705-5.412"/>
</g>
<g opacity="0.8">
	
		<path fill="#ED6E46" stroke="#E0623F" stroke-width="4.4567" stroke-linecap="round" stroke-linejoin="round" stroke-miterlimit="10" d="
		M434.302,230.146c-4.56,28.225-21.873,48.902-38.656,46.183c-3.515-0.571-6.723-2.118-9.557-4.465
		c-2.656,1.631-5.531,2.617-8.575,2.87c-16.948,1.408-32.6-20.528-34.981-49.017c-2.38-28.489,9.431-52.737,26.367-54.147
		c7.897-0.657,15.509,3.756,21.642,11.543c6.521-6.735,14.138-10.197,21.645-8.977C428.959,176.855,438.861,201.932,434.302,230.146
		z"/>
	<path fill="none" stroke="#72483F" stroke-width="4.0516" stroke-linecap="round" stroke-miterlimit="10" d="M390.525,187.691
		c0,0-4.411-9.566,5.314-22.059"/>
	
		<path fill="none" stroke="#E0623F" stroke-width="4.4567" stroke-linecap="round" stroke-linejoin="round" stroke-miterlimit="10" d="
		M377.99,184.682c0,0,11.678,10.061,23.287,1.578"/>
</g>
<g opacity="0.8">
	
		<path fill="#ED6E46" stroke="#E0623F" stroke-width="3.277" stroke-linecap="round" stroke-linejoin="round" stroke-miterlimit="10" d="
		M125.566,394.24c2.964,20.813-4.675,39.113-17.052,40.87c-2.593,0.367-5.183-0.018-7.685-1.047
		c-1.508,1.726-3.312,3.046-5.393,3.888c-11.591,4.691-27.373-7.291-35.267-26.773s-4.899-39.087,6.684-43.776
		c5.401-2.187,11.709-0.751,17.716,3.377c3.107-6.153,7.699-10.247,13.236-11.031C110.174,357.991,122.604,373.435,125.566,394.24z"
		/>
	<path fill="none" stroke="#72483F" stroke-width="2.9791" stroke-linecap="round" stroke-miterlimit="10" d="M85.556,373.995
		c0,0-5.187-5.753-1.087-16.648"/>
	
		<path fill="none" stroke="#E0623F" stroke-width="3.277" stroke-linecap="round" stroke-linejoin="round" stroke-miterlimit="10" d="
		M76.099,374.621c0,0,10.397,4.513,16.695-3.979"/>
</g>
<g opacity="0.8">
	
		<path fill="#ED6E46" stroke="#E0623F" stroke-width="3.277" stroke-linecap="round" stroke-linejoin="round" stroke-miterlimit="10" d="
		M272.88,317.219c-9.498,18.755-26.244,29.375-37.394,23.723c-2.335-1.185-4.237-2.985-5.698-5.262
		c-2.225,0.55-4.459,0.599-6.648,0.096c-12.187-2.798-18.255-21.661-13.561-42.151c4.694-20.49,18.384-34.84,30.563-32.045
		c5.679,1.303,10.026,6.095,12.584,12.919c6.072-3.262,12.182-3.986,17.168-1.456C281.037,278.692,282.374,298.471,272.88,317.219z"
		/>
	<path fill="none" stroke="#72483F" stroke-width="2.9791" stroke-linecap="round" stroke-miterlimit="10" d="M251.691,277.701
		c0,0-0.954-7.687,8.649-14.267"/>
	
		<path fill="none" stroke="#E0623F" stroke-width="3.277" stroke-linecap="round" stroke-linejoin="round" stroke-miterlimit="10" d="
		M243.582,272.794c0,0,5.934,9.656,15.962,6.305"/>
</g>
<g opacity="0.8">
	
		<path fill="#ED6E46" stroke="#E0623F" stroke-width="3.277" stroke-linecap="round" stroke-linejoin="round" stroke-miterlimit="10" d="
		M398.937,420.61c-12.397,16.979-30.636,24.76-40.729,17.384c-2.114-1.546-3.701-3.629-4.775-6.112
		c-2.284,0.184-4.497-0.128-6.576-0.977c-11.577-4.726-14.524-24.321-6.588-43.786c7.936-19.465,23.76-31.421,35.33-26.699
		c5.395,2.202,8.912,7.631,10.336,14.779c6.519-2.24,12.665-1.97,17.178,1.331C413.198,383.902,411.33,403.639,398.937,420.61z"/>
	<path fill="none" stroke="#72483F" stroke-width="2.9791" stroke-linecap="round" stroke-miterlimit="10" d="M384.396,378.193
		c0,0,0.298-7.74,10.836-12.686"/>
	
		<path fill="none" stroke="#E0623F" stroke-width="3.277" stroke-linecap="round" stroke-linejoin="round" stroke-miterlimit="10" d="
		M377.184,372.043c0,0,4.3,10.486,14.737,8.796"/>
</g>
<g>
	<path fill="#71BFA3" d="M31.576,147.586c-0.8,1.1-1.22,1.38-1.46,1.38c-0.48,0-0.84-0.56-0.84-0.92c0-0.14,0.1-0.16,0.22-0.2
		c0.46-0.16,2.221-2.681,2.221-2.681c0.14-0.2,0.36-0.32,0.6-0.32c0.4,0,0.78,0.38,0.78,0.78v13.123c0,0.34-0.26,0.46-0.56,0.46
		c-0.46,0-0.96-0.28-0.96-0.58V147.586z"/>
</g>
<g>
	<path fill="#71BFA3" d="M94.998,157.581c0.32,0,0.32-0.28,0.5-0.28s0.22,0.32,0.22,0.581c0,0.62-0.24,1.2-0.78,1.2h-4.501
		c-0.38,0-0.74-0.3-0.74-0.74c0-0.22,0.08-0.44,0.24-0.58c0.04-0.04,4.381-4.401,4.381-8.782c0-2.14-1.16-2.62-1.76-2.62
		c-0.92,0-1.9,0.7-1.9,2.62c0,1.32,0.56,2.341,0.86,2.341c0.1,0,0.14-0.1,0.2-0.1c0.04,0,0.08,0.06,0.06,0.18
		c-0.04,0.34-0.46,0.88-0.98,0.88c-1,0-1.68-1.84-1.68-3.301c0-2.82,1.78-4.101,3.481-4.101c2.28,0,3.281,2.141,3.281,4.161
		c0,3.441-2.341,6.802-3.781,8.542H94.998z"/>
</g>
<g>
	<path fill="#71BFA3" d="M155.751,144.845c2.34,0,3.241,2.28,3.241,4.341c0,2.48-1.04,3.781-2.181,4.561
		c0.74,0.44,1.761,1.24,1.761,2.781c0,1.66-1.181,2.88-2.781,2.88c-1.7,0-2.701-1.64-2.701-2.681c0-0.34,0.62-0.5,1.06-0.5
		c0.3,0,0.44,0.04,0.44,0.12s-0.04,0.1-0.04,0.22c0,0.16,0.28,1.36,1.32,1.36c0.58,0,1.16-0.5,1.16-1.32c0-1.52-1.3-2-1.8-2.14
		c-0.32-0.08-0.56-0.34-0.56-0.88c0-0.2,0.06-0.5,0.4-0.5c0.04,0,0.1,0.02,0.16,0.02c1.22-0.4,2.24-1.5,2.24-3.981
		c0-1.96-0.82-2.8-1.8-2.8c-0.92,0-1.8,0.8-1.8,2.521c0,1.2,0.54,2.12,0.84,2.12c0.1,0,0.14-0.1,0.2-0.1c0.04,0,0.06,0.04,0.06,0.12
		c0,0.34-0.42,0.94-0.98,0.94c-0.98,0-1.641-1.721-1.641-3.101C152.351,146.085,154.071,144.845,155.751,144.845z"/>
</g>
<g>
	<path fill="#71BFA3" d="M222.368,154.947v3.661c0,0.34-0.26,0.46-0.56,0.46c-0.46,0-0.96-0.28-0.96-0.58v-3.581h-0.72
		c-0.92,0-2.36,0.06-3.041,0.06c-0.46,0-0.9-0.56-0.9-0.88c0-0.26,0.16-0.36,0.3-0.5c1.08-2.761,1.16-5.881,1.16-7.182
		c0-0.3-0.1-0.7-0.1-0.74c0-0.16,0.2-0.24,0.541-0.24c0.44,0,1.1,0.2,1.1,1.18c0,1.66-0.3,4.761-1.14,6.881
		c0.72-0.02,1.64-0.04,2.4-0.04h0.4v-7.762c0-0.58-0.2-0.62-0.2-0.76c0-0.14,0.36-0.22,0.64-0.22c0.66,0,1.08,0.4,1.08,0.88v7.881
		h0.52c0.32,0,0.32-0.28,0.5-0.28c0.18,0,0.22,0.32,0.22,0.58c0,0.62-0.22,1.18-0.78,1.18H222.368z"/>
</g>
<g>
	<path fill="#71BFA3" d="M280.133,145.73c0.02-0.16,0.14-0.2,0.22-0.2c0.521,0,1.5,0,2.021,0c1.12,0,1.72-0.02,1.72-0.02
		c0.32,0,0.341-0.2,0.501-0.2c0.159,0,0.199,0.32,0.199,0.5c0,0.62-0.22,1.2-0.76,1.2h-2.62l-0.221,2.521
		c0.261-0.2,0.681-0.38,1.2-0.38c1.12,0,2.881,0.88,2.881,4.941c0,4.141-1.62,5.681-3.2,5.681c-2.281,0-2.901-2.681-2.901-3.701
		c0-0.58,0.141-0.92,0.641-0.92s0.98,0.32,0.98,0.5c0,0.12-0.08,0.12-0.08,0.36c0,0.44,0.12,2.28,1.38,2.28
		c1.04,0,1.62-1.44,1.62-4.201c0-2.181-0.54-3.501-1.64-3.501c-0.82,0-1.061,0.7-1.561,0.7c-0.24,0-1.04-0.3-0.96-0.78
		L280.133,145.73z"/>
</g>
<g>
	<path fill="#71BFA3" d="M346.63,149.976c0.74-0.82,1.4-0.94,1.92-0.94c2.141,0,3.021,2.381,3.021,4.801
		c0,5.221-2.621,5.501-3.142,5.501c-3.32,0-3.44-5.241-3.44-7.021c0-1.86,0-7.542,3.48-7.542c1.48,0,2.621,1.46,2.621,2.28
		c0,0.32-0.681,0.64-1.12,0.64c-0.181,0-0.32-0.04-0.32-0.16c0-0.64-0.5-1.3-1.181-1.3
		C347.59,146.236,346.87,147.196,346.63,149.976z M346.569,153.137c0.101,3.741,1.021,4.741,1.86,4.741
		c0.681,0,1.621-0.9,1.621-4.041c0-1.781-0.521-3.361-1.621-3.361C347.49,150.476,346.79,151.337,346.569,153.137z"/>
</g>
<g>
	<path fill="#71BFA3" d="M412.467,159.77c-0.46,0-1.021-0.2-1.021-1.08c0-4.521,1.461-9.022,2.661-11.522
		c-1.261,0.06-2.541,0.14-3.401,0.14c-0.68,0-0.74-0.48-0.74-0.9c0-0.38,0.12-0.74,0.341-0.74c0.06,0,0.08,0.02,0.16,0.04
		c0.439,0.02,1.18,0.06,2.561,0.06c1.36,0,2.08-0.16,2.42-0.16c0.24,0,0.48,0.18,0.48,0.54c0,0.18-0.08,0.4-0.181,0.64
		c-1.3,3.081-2.7,6.161-2.7,12.522C413.047,159.65,412.767,159.77,412.467,159.77z"/>
</g>
<g>
	<path fill="#71BFA3" d="M27.71,242.157c0-0.84,0.32-1.561,0.82-2.061c-0.84-0.7-1.5-2.061-1.5-4.441
		c0-3.841,1.621-5.201,3.141-5.201c0.74,0,3.161,0.38,3.161,5.201c0,2.26-0.64,3.681-1.52,4.421c0.52,0.48,0.84,1.22,0.84,2.081
		c0,1.58-1,2.86-2.48,2.86C28.73,245.018,27.71,243.738,27.71,242.157z M28.55,235.656c0,2.5,0.84,3.681,1.62,3.681
		c0.8,0,1.641-1.32,1.641-3.681c0-2.281-0.64-3.721-1.641-3.721C29.21,231.935,28.55,233.455,28.55,235.656z M29.19,242.157
		c0,0.76,0.38,1.4,1,1.4c0.66,0,0.98-0.64,0.98-1.4c0-0.88-0.48-1.36-1-1.36C29.67,240.797,29.19,241.297,29.19,242.157z"/>
</g>
<g>
	<path fill="#71BFA3" d="M94.717,239.681c-0.72,0.82-1.4,0.94-1.9,0.94c-2.14,0-3.021-2.38-3.021-4.801
		c0-5.221,2.621-5.501,3.141-5.501c3.321,0,3.441,5.241,3.441,7.021c0,1.86,0,7.542-3.481,7.542c-1.48,0-2.621-1.46-2.621-2.28
		c0-0.32,0.68-0.64,1.12-0.64c0.18,0,0.32,0.04,0.32,0.16c0,0.64,0.5,1.3,1.18,1.3C93.757,243.422,94.477,242.482,94.717,239.681z
		 M94.797,236.541c-0.12-3.741-1.02-4.761-1.86-4.761c-0.68,0-1.62,0.9-1.62,4.041c0,1.78,0.52,3.361,1.62,3.361
		C93.857,239.181,94.577,238.321,94.797,236.541z"/>
</g>
<g>
	<path fill="#71BFA3" d="M149.542,234.811c-0.8,1.1-1.22,1.38-1.46,1.38c-0.48,0-0.84-0.56-0.84-0.92c0-0.14,0.1-0.16,0.22-0.2
		c0.46-0.16,2.221-2.681,2.221-2.681c0.14-0.2,0.36-0.32,0.6-0.32c0.4,0,0.78,0.38,0.78,0.78v13.123c0,0.34-0.26,0.46-0.56,0.46
		c-0.46,0-0.96-0.28-0.96-0.58V234.811z"/>
	<path fill="#71BFA3" d="M153.002,239.351c0-1.82,0-7.281,3.661-7.281c3.261,0,3.641,4.141,3.641,7.281
		c0,6.042-1.98,7.282-3.641,7.282C154.222,246.633,153.002,244.173,153.002,239.351z M154.562,239.351
		c0,2.161,0.24,5.801,2.101,5.801c1.32,0,2.081-2.2,2.081-5.801c0-5.761-1.581-5.801-2.081-5.801
		C155.242,233.551,154.562,235.51,154.562,239.351z"/>
</g>
<g>
	<path fill="#71BFA3" d="M216.913,233.25c-0.8,1.101-1.22,1.381-1.46,1.381c-0.48,0-0.84-0.561-0.84-0.921
		c0-0.14,0.1-0.159,0.22-0.199c0.46-0.16,2.221-2.681,2.221-2.681c0.14-0.2,0.36-0.32,0.6-0.32c0.4,0,0.78,0.38,0.78,0.78v13.123
		c0,0.34-0.26,0.46-0.56,0.46c-0.46,0-0.96-0.28-0.96-0.58V233.25z"/>
	<path fill="#71BFA3" d="M222.132,233.25c-0.8,1.101-1.22,1.381-1.46,1.381c-0.48,0-0.84-0.561-0.84-0.921
		c0-0.14,0.1-0.159,0.22-0.199c0.46-0.16,2.221-2.681,2.221-2.681c0.14-0.2,0.36-0.32,0.6-0.32c0.4,0,0.78,0.38,0.78,0.78v13.123
		c0,0.34-0.26,0.46-0.56,0.46c-0.46,0-0.96-0.28-0.96-0.58V233.25z"/>
</g>
<g>
	<path fill="#71BFA3" d="M278.722,232.127c-0.8,1.1-1.22,1.38-1.46,1.38c-0.48,0-0.84-0.56-0.84-0.92c0-0.14,0.1-0.16,0.22-0.2
		c0.46-0.16,2.221-2.681,2.221-2.681c0.14-0.2,0.359-0.32,0.6-0.32c0.4,0,0.78,0.38,0.78,0.78v13.123c0,0.34-0.26,0.46-0.56,0.46
		c-0.461,0-0.961-0.28-0.961-0.58V232.127z"/>
	<path fill="#71BFA3" d="M287.923,242.089c0.319,0,0.319-0.28,0.5-0.28c0.18,0,0.22,0.32,0.22,0.581c0,0.62-0.24,1.2-0.78,1.2
		h-4.501c-0.38,0-0.74-0.3-0.74-0.74c0-0.22,0.08-0.44,0.24-0.58c0.04-0.04,4.381-4.401,4.381-8.782c0-2.14-1.16-2.62-1.76-2.62
		c-0.921,0-1.9,0.7-1.9,2.62c0,1.32,0.56,2.341,0.859,2.341c0.101,0,0.141-0.1,0.2-0.1c0.04,0,0.08,0.06,0.061,0.18
		c-0.04,0.34-0.46,0.88-0.98,0.88c-1,0-1.681-1.84-1.681-3.301c0-2.82,1.78-4.101,3.481-4.101c2.28,0,3.28,2.141,3.28,4.161
		c0,3.441-2.341,6.802-3.781,8.542H287.923z"/>
</g>
<g>
	<path fill="#71BFA3" d="M349.498,230.316c-0.8,1.1-1.22,1.38-1.46,1.38c-0.48,0-0.84-0.56-0.84-0.92c0-0.14,0.1-0.16,0.22-0.2
		c0.46-0.16,2.221-2.681,2.221-2.681c0.14-0.2,0.359-0.32,0.6-0.32c0.4,0,0.78,0.38,0.78,0.78v13.123c0,0.34-0.26,0.46-0.56,0.46
		c-0.461,0-0.961-0.28-0.961-0.58V230.316z"/>
	<path fill="#71BFA3" d="M356.118,227.575c2.341,0,3.241,2.28,3.241,4.341c0,2.48-1.04,3.781-2.181,4.561
		c0.74,0.44,1.761,1.24,1.761,2.781c0,1.66-1.181,2.88-2.781,2.88c-1.7,0-2.7-1.64-2.7-2.681c0-0.34,0.62-0.5,1.06-0.5
		c0.301,0,0.44,0.04,0.44,0.12s-0.04,0.1-0.04,0.22c0,0.16,0.28,1.36,1.32,1.36c0.58,0,1.16-0.5,1.16-1.32c0-1.521-1.3-2-1.8-2.141
		c-0.32-0.08-0.561-0.34-0.561-0.88c0-0.2,0.061-0.5,0.4-0.5c0.04,0,0.1,0.02,0.16,0.02c1.22-0.4,2.24-1.5,2.24-3.981
		c0-1.96-0.82-2.8-1.801-2.8c-0.92,0-1.8,0.8-1.8,2.521c0,1.2,0.54,2.12,0.84,2.12c0.1,0,0.14-0.1,0.2-0.1
		c0.04,0,0.06,0.04,0.06,0.12c0,0.34-0.42,0.94-0.979,0.94c-0.98,0-1.641-1.72-1.641-3.101
		C352.718,228.816,354.439,227.575,356.118,227.575z"/>
</g>
<g>
	<path fill="#71BFA3" d="M412.066,230.813c-0.8,1.1-1.22,1.38-1.46,1.38c-0.48,0-0.84-0.56-0.84-0.92c0-0.14,0.1-0.16,0.22-0.2
		c0.46-0.16,2.221-2.681,2.221-2.681c0.14-0.2,0.359-0.32,0.6-0.32c0.4,0,0.78,0.38,0.78,0.78v13.123c0,0.34-0.26,0.46-0.56,0.46
		c-0.461,0-0.961-0.28-0.961-0.58V230.813z"/>
	<path fill="#71BFA3" d="M421.048,238.315v3.661c0,0.34-0.261,0.46-0.561,0.46c-0.46,0-0.96-0.28-0.96-0.58v-3.581h-0.721
		c-0.92,0-2.36,0.06-3.04,0.06c-0.46,0-0.9-0.56-0.9-0.88c0-0.26,0.16-0.36,0.3-0.5c1.08-2.761,1.16-5.881,1.16-7.182
		c0-0.3-0.1-0.7-0.1-0.74c0-0.16,0.2-0.24,0.54-0.24c0.44,0,1.101,0.2,1.101,1.18c0,1.66-0.301,4.761-1.141,6.881
		c0.721-0.02,1.641-0.04,2.4-0.04h0.4v-7.762c0-0.58-0.2-0.62-0.2-0.76c0-0.14,0.36-0.22,0.641-0.22c0.66,0,1.08,0.4,1.08,0.88
		v7.881h0.52c0.32,0,0.32-0.28,0.5-0.28c0.181,0,0.221,0.32,0.221,0.58c0,0.62-0.221,1.18-0.78,1.18H421.048z"/>
</g>
<g>
	<path fill="#71BFA3" d="M29.171,315.722c-0.8,1.101-1.22,1.38-1.46,1.38c-0.48,0-0.84-0.56-0.84-0.92c0-0.14,0.1-0.16,0.22-0.2
		c0.46-0.16,2.221-2.681,2.221-2.681c0.14-0.199,0.36-0.319,0.6-0.319c0.4,0,0.78,0.38,0.78,0.78v13.122
		c0,0.341-0.26,0.46-0.56,0.46c-0.46,0-0.96-0.279-0.96-0.58V315.722z"/>
	<path fill="#71BFA3" d="M33.431,313.501c0.02-0.16,0.14-0.2,0.22-0.2c0.521,0,1.5,0,2.021,0c1.12,0,1.72-0.02,1.72-0.02
		c0.32,0,0.34-0.2,0.5-0.2c0.16,0,0.2,0.32,0.2,0.5c0,0.62-0.22,1.2-0.76,1.2h-2.621l-0.22,2.521c0.26-0.2,0.68-0.38,1.2-0.38
		c1.12,0,2.881,0.88,2.881,4.941c0,4.141-1.621,5.681-3.201,5.681c-2.281,0-2.901-2.681-2.901-3.7c0-0.58,0.14-0.921,0.64-0.921
		s0.98,0.32,0.98,0.501c0,0.119-0.08,0.119-0.08,0.359c0,0.44,0.12,2.28,1.38,2.28c1.04,0,1.62-1.439,1.62-4.2
		c0-2.181-0.54-3.501-1.64-3.501c-0.82,0-1.061,0.7-1.561,0.7c-0.24,0-1.04-0.3-0.96-0.78L33.431,313.501z"/>
</g>
<g>
	<path fill="#71BFA3" d="M89.39,316.238c-0.8,1.101-1.22,1.381-1.46,1.381c-0.48,0-0.84-0.561-0.84-0.921
		c0-0.14,0.1-0.159,0.22-0.199c0.46-0.16,2.221-2.681,2.221-2.681c0.14-0.2,0.36-0.32,0.6-0.32c0.4,0,0.78,0.38,0.78,0.78v13.123
		c0,0.34-0.26,0.46-0.56,0.46c-0.46,0-0.96-0.28-0.96-0.58V316.238z"/>
	<path fill="#71BFA3" d="M94.549,318.699c0.74-0.82,1.4-0.94,1.92-0.94c2.141,0,3.021,2.381,3.021,4.801
		c0,5.222-2.621,5.502-3.141,5.502c-3.32,0-3.44-5.241-3.44-7.021c0-1.861,0-7.542,3.48-7.542c1.48,0,2.621,1.46,2.621,2.28
		c0,0.32-0.68,0.641-1.12,0.641c-0.18,0-0.32-0.04-0.32-0.16c0-0.641-0.5-1.301-1.181-1.301
		C95.51,314.958,94.79,315.919,94.549,318.699z M94.489,321.86c0.1,3.741,1.021,4.741,1.86,4.741c0.68,0,1.621-0.9,1.621-4.041
		c0-1.78-0.52-3.36-1.621-3.36C95.41,319.199,94.709,320.06,94.489,321.86z"/>
</g>
<g>
	<path fill="#71BFA3" d="M154.351,316.003c-0.8,1.1-1.22,1.38-1.46,1.38c-0.48,0-0.84-0.561-0.84-0.92c0-0.141,0.1-0.16,0.22-0.2
		c0.46-0.16,2.221-2.681,2.221-2.681c0.14-0.2,0.36-0.32,0.6-0.32c0.4,0,0.78,0.38,0.78,0.78v13.123c0,0.34-0.26,0.46-0.56,0.46
		c-0.46,0-0.96-0.28-0.96-0.58V316.003z"/>
	<path fill="#71BFA3" d="M159.971,327.625c-0.46,0-1.021-0.2-1.021-1.08c0-4.521,1.46-9.022,2.661-11.522
		c-1.26,0.06-2.541,0.14-3.401,0.14c-0.68,0-0.74-0.479-0.74-0.9c0-0.38,0.12-0.74,0.34-0.74c0.06,0,0.08,0.021,0.16,0.04
		c0.44,0.021,1.18,0.061,2.561,0.061c1.36,0,2.08-0.16,2.42-0.16c0.24,0,0.48,0.18,0.48,0.54c0,0.18-0.08,0.4-0.18,0.641
		c-1.3,3.08-2.7,6.161-2.7,12.522C160.551,327.505,160.271,327.625,159.971,327.625z"/>
</g>
<g>
	<path fill="#71BFA3" d="M219.755,317.496c-0.8,1.101-1.22,1.381-1.46,1.381c-0.48,0-0.84-0.561-0.84-0.921
		c0-0.14,0.1-0.159,0.22-0.199c0.46-0.16,2.221-2.681,2.221-2.681c0.14-0.2,0.36-0.32,0.6-0.32c0.4,0,0.78,0.38,0.78,0.78v13.123
		c0,0.34-0.26,0.46-0.56,0.46c-0.46,0-0.96-0.28-0.96-0.58V317.496z"/>
	<path fill="#71BFA3" d="M223.795,326.458c0-0.84,0.32-1.56,0.82-2.061c-0.84-0.7-1.5-2.06-1.5-4.44
		c0-3.841,1.621-5.201,3.141-5.201c0.74,0,3.161,0.38,3.161,5.201c0,2.261-0.64,3.681-1.52,4.421c0.52,0.48,0.84,1.22,0.84,2.08
		c0,1.581-1,2.861-2.48,2.861C224.815,329.32,223.795,328.039,223.795,326.458z M224.635,319.957c0,2.5,0.84,3.681,1.62,3.681
		c0.8,0,1.641-1.32,1.641-3.681c0-2.28-0.64-3.721-1.641-3.721C225.295,316.237,224.635,317.757,224.635,319.957z M225.275,326.458
		c0,0.761,0.38,1.4,1,1.4c0.66,0,0.98-0.64,0.98-1.4c0-0.88-0.48-1.36-1-1.36C225.755,325.098,225.275,325.598,225.275,326.458z"/>
</g>
<g>
	<path fill="#71BFA3" d="M283.34,317.722c-0.801,1.101-1.221,1.38-1.461,1.38c-0.479,0-0.84-0.56-0.84-0.92
		c0-0.14,0.101-0.16,0.22-0.2c0.461-0.16,2.221-2.681,2.221-2.681c0.141-0.199,0.36-0.319,0.601-0.319c0.399,0,0.78,0.38,0.78,0.78
		v13.122c0,0.341-0.261,0.46-0.561,0.46c-0.46,0-0.96-0.279-0.96-0.58V317.722z"/>
	<path fill="#71BFA3" d="M291.66,324.343c-0.721,0.82-1.4,0.94-1.9,0.94c-2.141,0-3.021-2.381-3.021-4.801
		c0-5.222,2.62-5.501,3.141-5.501c3.32,0,3.44,5.241,3.44,7.021c0,1.86,0,7.541-3.48,7.541c-1.48,0-2.621-1.46-2.621-2.28
		c0-0.32,0.681-0.64,1.121-0.64c0.18,0,0.319,0.04,0.319,0.159c0,0.641,0.5,1.301,1.181,1.301
		C290.7,328.084,291.42,327.144,291.66,324.343z M291.74,321.202c-0.12-3.74-1.021-4.761-1.86-4.761c-0.681,0-1.62,0.9-1.62,4.041
		c0,1.78,0.52,3.36,1.62,3.36C290.8,323.843,291.521,322.983,291.74,321.202z"/>
</g>
<g>
	<path fill="#71BFA3" d="M349.3,327.369c0.32,0,0.32-0.28,0.5-0.28c0.181,0,0.221,0.32,0.221,0.581c0,0.62-0.24,1.2-0.78,1.2h-4.501
		c-0.38,0-0.74-0.301-0.74-0.74c0-0.221,0.08-0.44,0.24-0.58c0.04-0.04,4.381-4.401,4.381-8.782c0-2.141-1.16-2.62-1.761-2.62
		c-0.92,0-1.9,0.699-1.9,2.62c0,1.32,0.561,2.341,0.86,2.341c0.1,0,0.14-0.101,0.2-0.101c0.04,0,0.08,0.061,0.06,0.181
		c-0.04,0.34-0.46,0.88-0.979,0.88c-1.001,0-1.681-1.841-1.681-3.301c0-2.82,1.78-4.101,3.48-4.101c2.28,0,3.281,2.141,3.281,4.16
		c0,3.441-2.341,6.802-3.781,8.542H349.3z"/>
	<path fill="#71BFA3" d="M351.519,321.948c0-1.82,0-7.281,3.661-7.281c3.261,0,3.641,4.141,3.641,7.281
		c0,6.041-1.98,7.281-3.641,7.281C352.739,329.23,351.519,326.77,351.519,321.948z M353.079,321.948c0,2.16,0.24,5.801,2.101,5.801
		c1.32,0,2.08-2.2,2.08-5.801c0-5.762-1.58-5.801-2.08-5.801C353.759,316.148,353.079,318.108,353.079,321.948z"/>
</g>
<g>
	<path fill="#71BFA3" d="M414.609,327.404c0.319,0,0.319-0.28,0.5-0.28c0.18,0,0.22,0.32,0.22,0.58c0,0.62-0.24,1.2-0.78,1.2h-4.501
		c-0.38,0-0.74-0.3-0.74-0.74c0-0.22,0.08-0.439,0.24-0.58c0.04-0.04,4.381-4.4,4.381-8.782c0-2.14-1.16-2.62-1.76-2.62
		c-0.921,0-1.9,0.7-1.9,2.62c0,1.32,0.56,2.341,0.859,2.341c0.101,0,0.141-0.1,0.2-0.1c0.04,0,0.08,0.06,0.061,0.18
		c-0.04,0.34-0.46,0.88-0.98,0.88c-1,0-1.681-1.84-1.681-3.301c0-2.82,1.78-4.101,3.481-4.101c2.28,0,3.28,2.141,3.28,4.161
		c0,3.44-2.341,6.802-3.781,8.542H414.609z"/>
	<path fill="#71BFA3" d="M418.588,317.442c-0.8,1.1-1.22,1.38-1.46,1.38c-0.48,0-0.84-0.561-0.84-0.92c0-0.141,0.1-0.16,0.22-0.2
		c0.46-0.16,2.221-2.681,2.221-2.681c0.14-0.2,0.359-0.32,0.6-0.32c0.4,0,0.78,0.38,0.78,0.78v13.123c0,0.34-0.26,0.46-0.56,0.46
		c-0.461,0-0.961-0.28-0.961-0.58V317.442z"/>
</g>
<g>
	<path fill="#71BFA3" d="M32.557,409.288c0.32,0,0.32-0.28,0.5-0.28s0.22,0.319,0.22,0.58c0,0.62-0.24,1.2-0.78,1.2h-4.501
		c-0.38,0-0.74-0.3-0.74-0.74c0-0.22,0.08-0.44,0.24-0.58c0.04-0.04,4.381-4.401,4.381-8.782c0-2.141-1.16-2.62-1.76-2.62
		c-0.92,0-1.9,0.7-1.9,2.62c0,1.32,0.56,2.341,0.86,2.341c0.1,0,0.14-0.101,0.2-0.101c0.04,0,0.08,0.061,0.06,0.181
		c-0.04,0.34-0.46,0.88-0.98,0.88c-1,0-1.68-1.84-1.68-3.301c0-2.82,1.78-4.101,3.481-4.101c2.28,0,3.281,2.141,3.281,4.161
		c0,3.44-2.341,6.801-3.781,8.542H32.557z"/>
	<path fill="#71BFA3" d="M40.517,409.288c0.32,0,0.32-0.28,0.5-0.28s0.22,0.319,0.22,0.58c0,0.62-0.24,1.2-0.78,1.2h-4.501
		c-0.38,0-0.74-0.3-0.74-0.74c0-0.22,0.08-0.44,0.24-0.58c0.04-0.04,4.381-4.401,4.381-8.782c0-2.141-1.16-2.62-1.76-2.62
		c-0.92,0-1.9,0.7-1.9,2.62c0,1.32,0.56,2.341,0.86,2.341c0.1,0,0.14-0.101,0.2-0.101c0.04,0,0.08,0.061,0.06,0.181
		c-0.04,0.34-0.46,0.88-0.98,0.88c-1,0-1.68-1.84-1.68-3.301c0-2.82,1.78-4.101,3.481-4.101c2.28,0,3.281,2.141,3.281,4.161
		c0,3.44-2.341,6.801-3.781,8.542H40.517z"/>
</g>
<g>
	<path fill="#71BFA3" d="M94.474,409.288c0.32,0,0.32-0.28,0.5-0.28s0.22,0.319,0.22,0.58c0,0.62-0.24,1.2-0.78,1.2h-4.501
		c-0.38,0-0.74-0.3-0.74-0.74c0-0.22,0.08-0.44,0.24-0.58c0.04-0.04,4.381-4.4,4.381-8.782c0-2.14-1.16-2.62-1.76-2.62
		c-0.92,0-1.9,0.7-1.9,2.62c0,1.32,0.56,2.341,0.86,2.341c0.1,0,0.14-0.1,0.2-0.1c0.04,0,0.08,0.06,0.06,0.18
		c-0.04,0.34-0.46,0.88-0.98,0.88c-1,0-1.681-1.84-1.681-3.301c0-2.82,1.78-4.101,3.481-4.101c2.28,0,3.281,2.141,3.281,4.161
		c0,3.44-2.341,6.801-3.781,8.542H94.474z"/>
	<path fill="#71BFA3" d="M99.854,396.585c2.34,0,3.241,2.28,3.241,4.341c0,2.48-1.04,3.781-2.181,4.562
		c0.74,0.439,1.761,1.24,1.761,2.78c0,1.66-1.181,2.881-2.781,2.881c-1.7,0-2.701-1.641-2.701-2.681c0-0.341,0.62-0.5,1.06-0.5
		c0.3,0,0.44,0.04,0.44,0.119c0,0.08-0.04,0.101-0.04,0.221c0,0.16,0.28,1.36,1.32,1.36c0.58,0,1.16-0.5,1.16-1.32
		c0-1.521-1.3-2-1.8-2.141c-0.32-0.08-0.56-0.34-0.56-0.88c0-0.2,0.06-0.5,0.4-0.5c0.04,0,0.1,0.02,0.16,0.02
		c1.22-0.399,2.24-1.5,2.24-3.98c0-1.961-0.82-2.801-1.8-2.801c-0.92,0-1.8,0.8-1.8,2.521c0,1.2,0.54,2.12,0.84,2.12
		c0.1,0,0.14-0.1,0.2-0.1c0.04,0,0.06,0.04,0.06,0.12c0,0.34-0.42,0.94-0.98,0.94c-0.98,0-1.641-1.721-1.641-3.101
		C96.453,397.825,98.173,396.585,99.854,396.585z"/>
</g>
<g>
	<path fill="#71BFA3" d="M156.523,410.536c0.32,0,0.32-0.28,0.5-0.28s0.22,0.319,0.22,0.58c0,0.62-0.24,1.2-0.78,1.2h-4.501
		c-0.38,0-0.74-0.3-0.74-0.74c0-0.22,0.08-0.44,0.24-0.58c0.04-0.04,4.381-4.401,4.381-8.782c0-2.141-1.16-2.62-1.76-2.62
		c-0.92,0-1.9,0.7-1.9,2.62c0,1.32,0.56,2.341,0.86,2.341c0.1,0,0.14-0.101,0.2-0.101c0.04,0,0.08,0.061,0.06,0.181
		c-0.04,0.34-0.46,0.88-0.98,0.88c-1,0-1.68-1.84-1.68-3.301c0-2.82,1.78-4.101,3.481-4.101c2.28,0,3.281,2.141,3.281,4.161
		c0,3.44-2.341,6.801-3.781,8.542H156.523z"/>
	<path fill="#71BFA3" d="M164.263,408.075v3.661c0,0.34-0.26,0.46-0.56,0.46c-0.46,0-0.96-0.28-0.96-0.58v-3.581h-0.72
		c-0.92,0-2.36,0.06-3.041,0.06c-0.46,0-0.9-0.56-0.9-0.88c0-0.26,0.16-0.36,0.3-0.5c1.08-2.761,1.16-5.881,1.16-7.182
		c0-0.3-0.1-0.7-0.1-0.74c0-0.16,0.2-0.24,0.541-0.24c0.44,0,1.1,0.2,1.1,1.181c0,1.66-0.3,4.761-1.14,6.882
		c0.72-0.021,1.64-0.04,2.4-0.04h0.4v-7.762c0-0.58-0.2-0.62-0.2-0.761c0-0.14,0.36-0.22,0.64-0.22c0.66,0,1.08,0.4,1.08,0.88v7.882
		h0.52c0.32,0,0.32-0.28,0.5-0.28c0.18,0,0.22,0.32,0.22,0.58c0,0.62-0.22,1.181-0.78,1.181H164.263z"/>
</g>
<g>
	<path fill="#71BFA3" d="M222.264,410.659c0.32,0,0.32-0.28,0.5-0.28s0.22,0.32,0.22,0.58c0,0.62-0.24,1.2-0.78,1.2h-4.501
		c-0.38,0-0.74-0.3-0.74-0.74c0-0.22,0.08-0.439,0.24-0.58c0.04-0.04,4.381-4.4,4.381-8.782c0-2.14-1.16-2.62-1.76-2.62
		c-0.92,0-1.9,0.7-1.9,2.62c0,1.32,0.56,2.341,0.86,2.341c0.1,0,0.14-0.1,0.2-0.1c0.04,0,0.08,0.06,0.06,0.18
		c-0.04,0.34-0.46,0.88-0.98,0.88c-1,0-1.68-1.84-1.68-3.301c0-2.82,1.78-4.101,3.481-4.101c2.28,0,3.281,2.141,3.281,4.161
		c0,3.44-2.341,6.802-3.781,8.542H222.264z"/>
	<path fill="#71BFA3" d="M225.283,398.477c0.02-0.16,0.14-0.2,0.22-0.2c0.52,0,1.5,0,2.021,0c1.12,0,1.72-0.021,1.72-0.021
		c0.32,0,0.34-0.199,0.5-0.199c0.16,0,0.2,0.319,0.2,0.5c0,0.62-0.22,1.2-0.76,1.2h-2.621l-0.22,2.521c0.26-0.2,0.68-0.38,1.2-0.38
		c1.12,0,2.881,0.88,2.881,4.94c0,4.142-1.621,5.682-3.201,5.682c-2.281,0-2.901-2.681-2.901-3.701c0-0.58,0.14-0.92,0.64-0.92
		s0.98,0.32,0.98,0.5c0,0.12-0.08,0.12-0.08,0.36c0,0.439,0.12,2.28,1.38,2.28c1.04,0,1.62-1.44,1.62-4.201
		c0-2.181-0.54-3.501-1.64-3.501c-0.82,0-1.061,0.7-1.561,0.7c-0.24,0-1.04-0.3-0.96-0.779L225.283,398.477z"/>
</g>
<g>
	<path fill="#71BFA3" d="M285.703,410.906c0.319,0,0.319-0.28,0.5-0.28c0.18,0,0.22,0.32,0.22,0.58c0,0.62-0.24,1.2-0.78,1.2h-4.501
		c-0.38,0-0.74-0.3-0.74-0.74c0-0.22,0.08-0.439,0.24-0.58c0.04-0.04,4.381-4.4,4.381-8.782c0-2.14-1.16-2.62-1.76-2.62
		c-0.921,0-1.9,0.7-1.9,2.62c0,1.32,0.56,2.341,0.859,2.341c0.101,0,0.141-0.1,0.2-0.1c0.04,0,0.08,0.06,0.061,0.18
		c-0.04,0.34-0.46,0.88-0.98,0.88c-1,0-1.681-1.84-1.681-3.301c0-2.82,1.78-4.101,3.481-4.101c2.28,0,3.28,2.141,3.28,4.161
		c0,3.44-2.341,6.802-3.781,8.542H285.703z"/>
	<path fill="#71BFA3" d="M289.622,403.405c0.74-0.82,1.4-0.94,1.92-0.94c2.141,0,3.021,2.381,3.021,4.802
		c0,5.221-2.621,5.501-3.142,5.501c-3.32,0-3.44-5.241-3.44-7.021c0-1.86,0-7.542,3.48-7.542c1.48,0,2.621,1.461,2.621,2.28
		c0,0.32-0.681,0.641-1.12,0.641c-0.181,0-0.32-0.04-0.32-0.16c0-0.64-0.5-1.3-1.181-1.3
		C290.582,399.664,289.862,400.624,289.622,403.405z M289.562,406.566c0.101,3.74,1.021,4.74,1.86,4.74
		c0.681,0,1.621-0.899,1.621-4.04c0-1.78-0.521-3.361-1.621-3.361C290.482,403.905,289.782,404.765,289.562,406.566z"/>
</g>
<g>
	<path fill="#71BFA3" d="M350.548,409.344c0.319,0,0.319-0.28,0.5-0.28c0.18,0,0.22,0.32,0.22,0.581c0,0.62-0.24,1.2-0.78,1.2
		h-4.501c-0.38,0-0.74-0.301-0.74-0.74c0-0.221,0.08-0.44,0.24-0.58c0.04-0.04,4.381-4.401,4.381-8.782c0-2.141-1.16-2.62-1.76-2.62
		c-0.921,0-1.9,0.699-1.9,2.62c0,1.32,0.56,2.341,0.859,2.341c0.101,0,0.141-0.101,0.2-0.101c0.04,0,0.08,0.061,0.061,0.181
		c-0.04,0.34-0.46,0.88-0.98,0.88c-1,0-1.681-1.841-1.681-3.301c0-2.82,1.78-4.101,3.481-4.101c2.28,0,3.28,2.141,3.28,4.16
		c0,3.441-2.341,6.802-3.781,8.542H350.548z"/>
	<path fill="#71BFA3" d="M354.728,411.004c-0.461,0-1.021-0.199-1.021-1.08c0-4.521,1.46-9.021,2.66-11.522
		c-1.26,0.061-2.54,0.141-3.4,0.141c-0.681,0-0.74-0.48-0.74-0.9c0-0.38,0.12-0.74,0.34-0.74c0.061,0,0.08,0.02,0.16,0.04
		c0.44,0.02,1.181,0.06,2.561,0.06c1.36,0,2.08-0.159,2.421-0.159c0.239,0,0.479,0.18,0.479,0.54c0,0.18-0.08,0.399-0.18,0.64
		c-1.301,3.081-2.7,6.161-2.7,12.522C355.308,410.885,355.027,411.004,354.728,411.004z"/>
</g>
<g>
	<path fill="#71BFA3" d="M414.924,412.097c0.32,0,0.32-0.28,0.5-0.28c0.181,0,0.221,0.32,0.221,0.581c0,0.62-0.24,1.2-0.78,1.2
		h-4.501c-0.38,0-0.74-0.301-0.74-0.74c0-0.221,0.08-0.44,0.24-0.58c0.04-0.04,4.381-4.401,4.381-8.782
		c0-2.141-1.16-2.62-1.761-2.62c-0.92,0-1.9,0.699-1.9,2.62c0,1.32,0.561,2.341,0.86,2.341c0.1,0,0.14-0.101,0.2-0.101
		c0.04,0,0.08,0.061,0.06,0.181c-0.04,0.34-0.46,0.88-0.98,0.88c-1,0-1.68-1.841-1.68-3.301c0-2.82,1.78-4.101,3.48-4.101
		c2.28,0,3.281,2.141,3.281,4.16c0,3.441-2.341,6.802-3.781,8.542H414.924z"/>
	<path fill="#71BFA3" d="M417.723,411.097c0-0.84,0.32-1.561,0.82-2.061c-0.84-0.7-1.5-2.061-1.5-4.44
		c0-3.841,1.62-5.201,3.141-5.201c0.74,0,3.16,0.38,3.16,5.201c0,2.26-0.64,3.681-1.52,4.421c0.52,0.479,0.84,1.22,0.84,2.08
		c0,1.58-1,2.86-2.48,2.86C418.743,413.957,417.723,412.677,417.723,411.097z M418.564,404.596c0,2.5,0.84,3.681,1.62,3.681
		c0.8,0,1.641-1.32,1.641-3.681c0-2.281-0.641-3.721-1.641-3.721C419.224,400.875,418.564,402.395,418.564,404.596z
		 M419.203,411.097c0,0.76,0.38,1.4,1,1.4c0.66,0,0.98-0.641,0.98-1.4c0-0.88-0.48-1.36-1-1.36
		C419.684,409.737,419.203,410.237,419.203,411.097z"/>
</g>
</svg>
