<?xml version="1.0" encoding="utf-8"?>
<!-- Generator: Adobe Illustrator 17.0.2, SVG Export Plug-In . SVG Version: 6.00 Build 0)  -->
<!DOCTYPE svg PUBLIC "-//W3C//DTD SVG 1.1//EN" "http://www.w3.org/Graphics/SVG/1.1/DTD/svg11.dtd">
<svg version="1.1" id="Layer_1" xmlns="http://www.w3.org/2000/svg" xmlns:xlink="http://www.w3.org/1999/xlink" x="0px" y="0px"
	 width="300px" height="330px" viewBox="0 0 300 330" enable-background="new 0 0 300 330" xml:space="preserve">
<g>
	<path fill="#72483F" d="M4.258,312.631c0-0.066,0.031-0.231,0.093-0.496l8.97-29.2c0.186-0.586,0.642-1.039,1.37-1.359
		c0.727-0.321,1.555-0.481,2.484-0.481s1.764,0.179,2.507,0.534c0.743,0.356,1.208,0.859,1.393,1.509l8.96,29.202
		c0.062,0.248,0.093,0.403,0.093,0.465c0,0.681-0.418,1.27-1.253,1.764c-0.836,0.496-1.688,0.743-2.554,0.743
		c-1.146,0-1.827-0.402-2.042-1.207l-1.765-6.175h-9.947l-1.73,6.179c-0.245,0.802-1.011,1.203-2.301,1.203
		c-1.011,0-1.978-0.256-2.897-0.769C4.718,314.028,4.258,313.392,4.258,312.631z M13.892,303.193h8.028l-4.039-14.253
		L13.892,303.193z"/>
	<path fill="#72483F" d="M33.573,313.407v-18.292c0-0.558,0.271-1.006,0.812-1.347c0.541-0.34,1.261-0.511,2.159-0.511
		c0.743,0,1.37,0.172,1.88,0.516s0.766,0.798,0.766,1.359v1.406c0.495-0.999,1.292-1.842,2.391-2.529
		c1.098-0.687,2.375-1.03,3.83-1.03c2.136,0,4,0.929,5.594,2.785c1.594,1.857,2.391,4.07,2.391,6.64v11.003
		c0,0.588-0.302,1.053-0.905,1.393c-0.604,0.341-1.308,0.511-2.112,0.511c-0.774,0-1.462-0.17-2.066-0.509
		c-0.604-0.34-0.905-0.803-0.905-1.39v-10.974c0-1.08-0.403-2.045-1.208-2.894c-0.805-0.849-1.749-1.273-2.832-1.273
		c-1.021,0-1.911,0.387-2.669,1.158c-0.759,0.771-1.137,1.774-1.137,3.009v10.974c0,0.464-0.302,0.896-0.905,1.297
		s-1.308,0.602-2.113,0.602c-0.835,0-1.54-0.193-2.112-0.58C33.859,314.344,33.573,313.902,33.573,313.407z"/>
	<path fill="#72483F" d="M64.519,312.631c0-0.066,0.031-0.231,0.093-0.496l8.97-29.2c0.186-0.586,0.642-1.039,1.37-1.359
		c0.727-0.321,1.555-0.481,2.484-0.481s1.764,0.179,2.507,0.534c0.743,0.356,1.208,0.859,1.393,1.509l8.96,29.202
		c0.062,0.248,0.093,0.403,0.093,0.465c0,0.681-0.418,1.27-1.253,1.764c-0.836,0.496-1.688,0.743-2.554,0.743
		c-1.146,0-1.827-0.402-2.042-1.207l-1.765-6.175h-9.947l-1.73,6.179c-0.245,0.802-1.011,1.203-2.301,1.203
		c-1.011,0-1.978-0.256-2.897-0.769C64.979,314.028,64.519,313.392,64.519,312.631z M74.154,303.193h8.028l-4.039-14.253
		L74.154,303.193z"/>
	<path fill="#72483F" d="M93.881,323.667v-28.552c0-0.558,0.271-1.006,0.812-1.347c0.541-0.34,1.214-0.511,2.02-0.511
		c0.805,0,1.47,0.172,1.997,0.516c0.526,0.344,0.789,0.798,0.789,1.359v1.406c0.587-0.999,1.431-1.842,2.53-2.529
		c1.098-0.687,2.345-1.03,3.737-1.03c2.321,0,4.287,0.921,5.896,2.762c1.609,1.843,2.414,4.062,2.414,6.663v3.807
		c0,2.507-0.82,4.721-2.461,6.639c-1.641,1.92-3.528,2.879-5.664,2.879c-1.331,0-2.561-0.367-3.691-1.101
		c-1.13-0.734-1.926-1.601-2.391-2.6v11.635c0,0.496-0.302,0.938-0.905,1.326c-0.604,0.387-1.323,0.582-2.159,0.582
		c-0.835,0-1.532-0.194-2.089-0.581S93.881,324.162,93.881,323.667z M99.87,307.026c0,0.614,0.417,1.336,1.253,2.165
		c0.835,0.83,1.779,1.244,2.832,1.244c1.083,0,2.043-0.438,2.878-1.312c0.836-0.875,1.253-1.851,1.253-2.926v-3.779
		c0-1.074-0.417-2.034-1.253-2.879c-0.835-0.844-1.827-1.268-2.971-1.268c-1.053,0-1.981,0.385-2.786,1.152
		c-0.805,0.769-1.207,1.767-1.207,2.994V307.026z"/>
	<path fill="#72483F" d="M117.976,323.667v-28.552c0-0.558,0.271-1.006,0.812-1.347c0.541-0.34,1.214-0.511,2.02-0.511
		c0.805,0,1.47,0.172,1.997,0.516c0.526,0.344,0.789,0.798,0.789,1.359v1.406c0.587-0.999,1.431-1.842,2.53-2.529
		c1.098-0.687,2.345-1.03,3.737-1.03c2.321,0,4.287,0.921,5.896,2.762c1.609,1.843,2.414,4.062,2.414,6.663v3.807
		c0,2.507-0.82,4.721-2.461,6.639c-1.641,1.92-3.528,2.879-5.664,2.879c-1.331,0-2.561-0.367-3.691-1.101
		c-1.13-0.734-1.926-1.601-2.391-2.6v11.635c0,0.496-0.302,0.938-0.905,1.326c-0.604,0.387-1.323,0.582-2.159,0.582
		c-0.835,0-1.532-0.194-2.089-0.581S117.976,324.162,117.976,323.667z M123.966,307.026c0,0.614,0.417,1.336,1.253,2.165
		c0.835,0.83,1.779,1.244,2.832,1.244c1.083,0,2.043-0.438,2.878-1.312c0.836-0.875,1.253-1.851,1.253-2.926v-3.779
		c0-1.074-0.417-2.034-1.253-2.879c-0.835-0.844-1.827-1.268-2.971-1.268c-1.053,0-1.981,0.385-2.786,1.152
		c-0.805,0.769-1.207,1.767-1.207,2.994V307.026z"/>
	<path fill="#72483F" d="M142.443,313.407v-31.152c0-0.558,0.271-1.006,0.812-1.347c0.541-0.34,1.261-0.511,2.159-0.511
		c0.836,0,1.547,0.171,2.136,0.511c0.587,0.341,0.882,0.789,0.882,1.347v31.152c0,0.464-0.302,0.897-0.906,1.3
		s-1.308,0.604-2.112,0.604c-0.835,0-1.54-0.193-2.112-0.58C142.729,314.344,142.443,313.902,142.443,313.407z"/>
	<path fill="#72483F" d="M152.657,306.211v-3.946c0-2.537,0.99-4.72,2.972-6.546c1.98-1.826,4.379-2.739,7.196-2.739
		c2.63,0,4.882,0.832,6.755,2.495c1.872,1.663,2.809,3.754,2.809,6.272c0,0.92-0.116,1.679-0.349,2.276
		c-0.231,0.598-0.588,1.019-1.067,1.264c-0.48,0.245-0.921,0.399-1.323,0.46c-0.402,0.062-0.929,0.093-1.578,0.093h-9.425v0.696
		c0,1.331,0.494,2.406,1.485,3.227c0.99,0.82,2.306,1.23,3.946,1.23c1.176,0,2.337-0.294,3.482-0.883
		c1.145-0.587,1.888-0.882,2.229-0.882c0.649,0,1.19,0.302,1.625,0.905c0.433,0.604,0.649,1.184,0.649,1.741
		c0,0.867-0.782,1.726-2.345,2.576c-1.562,0.853-3.505,1.277-5.826,1.277c-3.312,0-6.013-0.874-8.102-2.623
		C153.702,311.357,152.657,309.059,152.657,306.211z M158.646,302.312h6.778c0.494,0,0.843-0.079,1.045-0.239
		c0.2-0.159,0.302-0.469,0.302-0.932c0-1.012-0.396-1.836-1.185-2.472s-1.757-0.954-2.901-0.954c-1.084,0-2.027,0.312-2.832,0.932
		c-0.806,0.622-1.207,1.439-1.207,2.45V302.312z"/>
	<path fill="#72483F" d="M182.628,312.631c0-0.066,0.031-0.231,0.093-0.496l8.97-29.2c0.186-0.586,0.643-1.039,1.37-1.359
		c0.727-0.321,1.555-0.481,2.483-0.481s1.765,0.179,2.507,0.534c0.743,0.356,1.207,0.859,1.393,1.509l8.961,29.202
		c0.062,0.248,0.093,0.403,0.093,0.465c0,0.681-0.418,1.27-1.254,1.764c-0.835,0.496-1.687,0.743-2.553,0.743
		c-1.146,0-1.827-0.402-2.043-1.207l-1.765-6.175h-9.946l-1.73,6.179c-0.244,0.802-1.012,1.203-2.301,1.203
		c-1.012,0-1.978-0.256-2.897-0.769C183.088,314.028,182.628,313.392,182.628,312.631z M192.261,303.193h8.028l-4.039-14.253
		L192.261,303.193z"/>
	<path fill="#72483F" d="M221.692,313.453v-30.224c0-0.494,0.248-0.929,0.743-1.3s1.13-0.557,1.903-0.557h8.218
		c3.312,0,5.958,0.852,7.939,2.553c1.979,1.703,2.971,4.396,2.971,8.078v12.675c0,3.684-0.991,6.377-2.971,8.078
		c-1.981,1.703-4.628,2.554-7.939,2.554h-8.218c-0.773,0-1.408-0.186-1.903-0.557C221.94,314.382,221.692,313.949,221.692,313.453z
		 M227.728,310.018h4.828c3.25,0,4.875-1.779,4.875-5.339v-12.675c0-3.559-1.625-5.339-4.875-5.339h-4.828V310.018z"/>
	<path fill="#72483F" d="M246.855,309.363c0-2.438,0.929-4.152,2.785-5.146c1.857-0.992,4.534-1.489,8.032-1.489h1.903v-0.62
		c0-1.178-0.333-2.204-0.998-3.08c-0.666-0.875-1.694-1.313-3.087-1.313c-1.394,0-2.585,0.264-3.575,0.789
		c-0.991,0.526-1.563,0.789-1.718,0.789c-0.62,0-1.114-0.309-1.485-0.928c-0.372-0.619-0.558-1.301-0.558-2.043
		c0-0.897,0.797-1.679,2.391-2.345c1.594-0.665,3.273-0.998,5.038-0.998c3.373,0,5.88,0.858,7.521,2.576s2.461,3.877,2.461,6.477
		v11.375c0,0.526-0.278,0.975-0.836,1.347c-0.557,0.371-1.253,0.557-2.089,0.557c-0.774,0-1.416-0.198-1.927-0.596
		c-0.511-0.396-0.767-0.876-0.767-1.439v-1.438c-2.135,2.595-4.487,3.892-7.057,3.892c-1.764,0-3.211-0.542-4.341-1.627
		S246.855,311.438,246.855,309.363z M252.844,308.614c0,0.794,0.224,1.389,0.673,1.784c0.448,0.396,1.045,0.595,1.787,0.595
		c0.99,0,1.95-0.44,2.879-1.321s1.393-1.85,1.393-2.907v-0.925h-0.696c-1.889,0-3.366,0.184-4.434,0.55
		C253.378,306.757,252.844,307.498,252.844,308.614z"/>
	<path fill="#72483F" d="M267.7,322.9c0-1.748,0.511-2.622,1.532-2.622c1.454,0,2.886-0.522,4.295-1.564
		c1.407-1.044,2.188-2.778,2.344-5.203l-7.985-16.941c-0.124-0.306-0.186-0.567-0.186-0.782c0-0.736,0.456-1.396,1.37-1.979
		c0.912-0.583,1.787-0.875,2.623-0.875c0.929,0,1.501,0.338,1.718,1.013l5.571,13.765l4.503-13.765
		c0.217-0.675,0.743-1.013,1.579-1.013c0.804,0,1.687,0.3,2.646,0.898s1.439,1.281,1.439,2.049c0,0.248-0.046,0.479-0.139,0.696
		l-6.778,17.332l-0.79,2.044c-0.371,1.054-0.643,1.781-0.812,2.185c-0.17,0.402-0.464,1.029-0.882,1.882
		c-0.418,0.851-0.789,1.471-1.114,1.858c-0.325,0.387-0.782,0.867-1.369,1.44c-0.589,0.572-1.185,0.99-1.788,1.255
		c-0.604,0.263-1.339,0.494-2.205,0.697c-0.867,0.2-1.811,0.302-2.832,0.302c-0.897,0-1.578-0.179-2.043-0.534
		C267.932,324.68,267.7,323.969,267.7,322.9z"/>
	<path fill="#72483F" d="M290.579,314.66c-0.582-0.618-0.872-1.361-0.872-2.229c0-0.865,0.29-1.608,0.872-2.229
		c0.581-0.618,1.304-0.928,2.168-0.928c0.805,0,1.505,0.31,2.102,0.928c0.596,0.62,0.894,1.363,0.894,2.229
		c0,0.836-0.298,1.571-0.894,2.206c-0.597,0.635-1.297,0.951-2.102,0.951C291.883,315.589,291.16,315.28,290.579,314.66z"/>
</g>
<g>
	
		<path fill="#ED6E46" stroke="#E0623F" stroke-width="9.821" stroke-linecap="round" stroke-linejoin="round" stroke-miterlimit="10" d="
		M249.126,145.003c-5.822,62.735-40.807,110.775-78.109,107.297c-7.813-0.731-15.098-3.655-21.676-8.393
		c-5.596,3.982-11.771,6.578-18.425,7.587c-37.051,5.621-74.732-40.277-84.209-102.558S59.586,31.582,96.612,25.961
		c17.265-2.621,34.657,5.948,49.3,22.155c13.333-15.778,29.565-24.524,46.251-22.961C229.441,28.633,254.948,82.294,249.126,145.003
		z"/>
	<path fill="none" stroke="#72483F" stroke-width="8.9282" stroke-linecap="round" stroke-miterlimit="10" d="M146.554,58.183
		c0,0-11.123-20.375,8.399-49.29"/>
	
		<path fill="none" stroke="#E0623F" stroke-width="9.821" stroke-linecap="round" stroke-linejoin="round" stroke-miterlimit="10" d="
		M118.547,53.434c0,0,27.173,20.38,51.434,0"/>
</g>
<g>
	
		<circle fill="#72483F" stroke="#72483F" stroke-width="7.1426" stroke-linecap="round" stroke-linejoin="round" stroke-miterlimit="10" cx="105.382" cy="124.278" r="4.691"/>
	
		<circle fill="#72483F" stroke="#72483F" stroke-width="7.1426" stroke-linecap="round" stroke-linejoin="round" stroke-miterlimit="10" cx="191.895" cy="124.05" r="4.691"/>
</g>
<path fill="none" stroke="#E0623F" stroke-width="7.1426" stroke-linecap="round" stroke-miterlimit="10" d="M109.851,177.847
	c0,0,34.684,39.121,76.783,0"/>
<g>
	
		<circle fill="#EF9D8B" stroke="#EF9D8B" stroke-width="8.4949" stroke-linecap="round" stroke-linejoin="round" stroke-miterlimit="10" cx="79.784" cy="161.03" r="11.332"/>
	
		<circle fill="#EF9D8B" stroke="#EF9D8B" stroke-width="8.4949" stroke-linecap="round" stroke-linejoin="round" stroke-miterlimit="10" cx="217.961" cy="161.352" r="11.332"/>
</g>
</svg>
